<svg width="784" height="197" viewBox="0 0 784 197" fill="none" xmlns="http://www.w3.org/2000/svg">
<path fill-rule="evenodd" clip-rule="evenodd" d="M4.813 0.609062C5.534 0.898062 6.397 0.862052 6.729 0.530052C7.061 0.198052 6.471 -0.0379424 5.417 0.00505763C4.252 0.0530576 4.015 0.290062 4.813 0.609062ZM10.768 0.651054C12.565 0.873054 15.265 0.869044 16.768 0.641044C18.271 0.412044 16.8 0.230045 13.5 0.236045C10.2 0.241045 8.97101 0.428054 10.768 0.651054ZM22.269 0.619041C23.242 0.873041 24.592 0.856053 25.269 0.582053C25.946 0.308053 25.15 0.101055 23.5 0.121055C21.85 0.141055 21.296 0.365041 22.269 0.619041ZM70.75 0.632041C71.988 0.870041 74.012 0.870041 75.25 0.632041C76.488 0.393041 75.475 0.198051 73 0.198051C70.525 0.198051 69.512 0.393041 70.75 0.632041ZM116.75 0.588035C117.438 0.866035 118.563 0.866035 119.25 0.588035C119.938 0.311035 119.375 0.0840371 118 0.0840371C116.625 0.0840371 116.063 0.311035 116.75 0.588035ZM189.762 0.633048C191.006 0.872048 192.806 0.863059 193.762 0.613059C194.718 0.363059 193.7 0.167062 191.5 0.178062C189.3 0.189062 188.518 0.394048 189.762 0.633048ZM199.25 0.615043C200.212 0.867043 201.788 0.867043 202.75 0.615043C203.712 0.364043 202.925 0.158042 201 0.158042C199.075 0.158042 198.288 0.364043 199.25 0.615043ZM252.264 0.644035C253.784 0.873035 256.034 0.867058 257.264 0.630058C258.494 0.393058 257.25 0.205058 254.5 0.212058C251.75 0.220058 250.744 0.414035 252.264 0.644035ZM263.813 0.609062C264.534 0.898062 265.397 0.862052 265.729 0.530052C266.061 0.198052 265.471 -0.0379424 264.417 0.00505763C263.252 0.0530576 263.015 0.290062 263.813 0.609062ZM309.813 0.609062C310.534 0.898062 311.397 0.862052 311.729 0.530052C312.061 0.198052 311.471 -0.0379424 310.417 0.00505763C309.252 0.0530576 309.015 0.290062 309.813 0.609062ZM317.75 0.588035C318.438 0.866035 319.563 0.866035 320.25 0.588035C320.938 0.311035 320.375 0.0840371 319 0.0840371C317.625 0.0840371 317.063 0.311035 317.75 0.588035ZM359.813 0.609062C360.534 0.898062 361.397 0.862052 361.729 0.530052C362.061 0.198052 361.471 -0.0379424 360.417 0.00505763C359.252 0.0530576 359.015 0.290062 359.813 0.609062ZM365.269 0.619041C366.242 0.873041 367.592 0.856053 368.269 0.582053C368.946 0.308053 368.15 0.101055 366.5 0.121055C364.85 0.141055 364.296 0.365041 365.269 0.619041ZM375.813 0.609062C376.534 0.898062 377.397 0.862052 377.729 0.530052C378.061 0.198052 377.471 -0.0379424 376.417 0.00505763C375.252 0.0530576 375.015 0.290062 375.813 0.609062ZM423.762 0.633048C425.006 0.872048 426.806 0.863059 427.762 0.613059C428.718 0.363059 427.7 0.167062 425.5 0.178062C423.3 0.189062 422.518 0.394048 423.762 0.633048ZM502.25 0.665061C505.413 0.863061 510.587 0.863061 513.75 0.665061C516.913 0.467061 514.325 0.304038 508 0.304038C501.675 0.304038 499.087 0.467061 502.25 0.665061ZM520.75 0.588035C521.438 0.866035 522.563 0.866035 523.25 0.588035C523.938 0.311035 523.375 0.0840371 522 0.0840371C520.625 0.0840371 520.063 0.311035 520.75 0.588035ZM530.75 0.588035C531.438 0.866035 532.563 0.866035 533.25 0.588035C533.938 0.311035 533.375 0.0840371 532 0.0840371C530.625 0.0840371 530.063 0.311035 530.75 0.588035ZM545.269 0.619041C546.242 0.873041 547.592 0.856053 548.269 0.582053C548.946 0.308053 548.15 0.101055 546.5 0.121055C544.85 0.141055 544.296 0.365041 545.269 0.619041ZM583.728 0.648032C585.503 0.869032 588.653 0.872059 590.728 0.656059C592.802 0.439059 591.35 0.259051 587.5 0.254051C583.65 0.250051 581.952 0.427032 583.728 0.648032ZM596.269 0.619041C597.242 0.873041 598.592 0.856053 599.269 0.582053C599.946 0.308053 599.15 0.101055 597.5 0.121055C595.85 0.141055 595.296 0.365041 596.269 0.619041ZM641.269 0.619041C642.242 0.873041 643.592 0.856053 644.269 0.582053C644.946 0.308053 644.15 0.101055 642.5 0.121055C640.85 0.141055 640.296 0.365041 641.269 0.619041ZM650.28 0.66204C652.909 0.86904 656.959 0.866035 659.28 0.657035C661.601 0.447035 659.45 0.278059 654.5 0.281059C649.55 0.284059 647.651 0.45604 650.28 0.66204ZM665.75 0.632041C666.987 0.870041 669.013 0.870041 670.25 0.632041C671.487 0.393041 670.475 0.198051 668 0.198051C665.525 0.198051 664.513 0.393041 665.75 0.632041ZM716.25 0.661033C718.862 0.867033 723.138 0.867033 725.75 0.661033C728.362 0.455033 726.225 0.286033 721 0.286033C715.775 0.286033 713.638 0.455033 716.25 0.661033ZM769.75 0.658042C772.087 0.869042 775.913 0.869042 778.25 0.658042C780.587 0.448042 778.675 0.275047 774 0.275047C769.325 0.275047 767.413 0.448042 769.75 0.658042ZM0 57.52V113.113L9.91901 112.77C15.374 112.581 20.212 112.047 20.669 111.583C21.126 111.12 21.5 101.67 21.5 90.5831V70.426L32.939 70.141C39.27 69.984 44.964 69.371 45.689 68.769C47.047 67.642 47.57 55.574 46.393 52.508C45.885 51.183 43.771 50.926 33.393 50.926H21V36.4531V21.981L35.25 21.7031L49.5 21.426L49.786 11.676L50.072 1.92605H25.036H0V57.52ZM65 57.506V113.086L75.25 112.796C80.887 112.637 85.831 112.039 86.235 111.466C86.639 110.894 86.976 86.287 86.985 56.783C86.998 8.78104 86.834 3.07604 85.418 2.53304C84.548 2.19904 79.598 1.92605 74.418 1.92605H65V57.506ZM103.699 2.56005C102.814 3.44505 102.776 91.4611 103.655 103.85L104.311 113.081L128.107 112.754C143.158 112.546 152.294 112.035 152.966 111.362C153.672 110.655 153.772 107.483 153.264 101.896C152.532 93.843 152.396 93.491 150 93.395C148.625 93.34 142.49 93.212 136.367 93.111L125.234 92.926L125.198 57.176C125.178 37.513 124.913 17.151 124.608 11.926L124.053 2.42605L114.226 2.14306C108.821 1.98806 104.084 2.17505 103.699 2.56005ZM184.259 3.17605C183.716 3.86405 183.265 5.10105 183.256 5.92605C183.247 6.75105 181.181 17.326 178.665 29.426C173.231 55.564 162 111.413 162 112.302C162 112.645 166.677 112.926 172.393 112.926C180.056 112.926 182.918 112.581 183.29 111.612C183.568 110.889 184.353 106.839 185.035 102.612L186.274 94.926H198.07C211.139 94.926 210.257 94.435 211.531 102.426C211.882 104.626 212.615 107.888 213.162 109.676L214.155 112.926H224.019C229.443 112.926 234.107 112.562 234.381 112.118C234.656 111.674 233.098 103.686 230.92 94.3681C226.769 76.6151 221.017 49.76 215.938 24.426C214.285 16.176 212.48 7.73905 211.927 5.67605L210.923 1.92605H198.084C189.005 1.92605 184.956 2.29205 184.259 3.17605ZM247 57.426V112.926H256.346H265.693L266.346 100.769C266.706 94.0831 267.043 80.92 267.096 71.519C267.19 54.687 267.214 54.502 268.695 59.426C269.523 62.176 271.958 69.376 274.108 75.426C276.257 81.476 278.012 86.8611 278.008 87.3931C278.004 87.9241 278.736 90.287 279.636 92.643L281.272 96.926H287.054C290.234 96.926 293.532 96.659 294.382 96.333C295.35 95.962 298.464 88.0261 302.714 75.1031L309.5 54.4661L309.765 83.696L310.03 112.926H320.515H331V57.426V1.92605H319.039H307.077L305.953 6.17605C299.598 30.196 288.397 64.992 287.686 62.926C285.007 55.149 274.429 21.428 270.982 9.67605L268.709 1.92605H257.854H247V57.426ZM347 57.468V113.011L372.499 112.875C389.757 112.783 398.216 112.386 398.674 111.645C399.553 110.222 399.424 95.0171 398.524 94.1161C398.146 93.7361 391.348 93.426 383.419 93.426H369.002L369.001 80.205L369 66.9841L382.25 66.705L395.5 66.426L395.799 58.938C396.305 46.241 397.092 46.926 381.981 46.926H369V34.4531V21.981L383.25 21.7031L397.5 21.426L397.786 11.676L398.072 1.92605H372.536H347V57.468ZM414 57.4621V112.998L423.75 112.712L433.5 112.426L433.361 81.926L433.223 51.426L435.133 55.426C436.184 57.626 442.612 71.351 449.417 85.926L461.79 112.426L467.603 112.732C470.801 112.9 474.448 112.779 475.708 112.463L478 111.888V56.8711V1.85406L468.25 2.14004L458.5 2.42605L458.817 33.426L459.133 64.426L453.998 53.426C451.173 47.376 445.689 35.001 441.81 25.926C437.932 16.851 433.904 7.73905 432.859 5.67605L430.959 1.92605H422.48H414V57.4621ZM493.214 11.676L493.5 21.426L502.75 21.714L512 22.0011V67.538V113.074L522.75 112.75L533.5 112.426L533.76 67.176L534.02 21.926H543.475C555.031 21.926 555.427 21.5061 554.618 10.0911C554.32 5.87506 554.058 2.31305 554.038 2.17605C554.017 2.03905 540.259 1.92605 523.464 1.92605H492.928L493.214 11.676ZM576.513 4.14706C576.217 5.40106 574.648 12.951 573.028 20.926C571.408 28.901 568.701 41.726 567.013 49.426C565.324 57.126 562.142 72.651 559.94 83.926C557.739 95.201 555.505 106.001 554.975 107.926C554.445 109.851 554.009 111.763 554.006 112.176C554.003 112.589 558.892 112.926 564.872 112.926H575.744L576.388 108.903C576.742 106.69 577.511 102.64 578.098 99.903L579.166 94.926H591.436H603.707L604.883 102.047C606.708 113.099 606.509 112.926 617.428 112.926C624.121 112.926 626.926 112.561 627.278 111.643C627.549 110.937 626.474 105.425 624.89 99.393C623.306 93.361 618.857 73.576 615.004 55.426C611.151 37.276 606.987 17.926 605.749 12.426L603.5 2.42605L590.276 2.14706C577.233 1.87206 577.045 1.89906 576.513 4.14706ZM640 57.562V113.199L649.25 112.674C663.339 111.874 662.186 113.891 661.387 91.4571L660.703 72.2291L663.831 72.688C667.121 73.171 667.529 73.807 674.262 88.926C675.609 91.951 677.639 96.451 678.772 98.926C679.906 101.401 681.746 105.564 682.861 108.176L684.888 112.926H695.385C701.158 112.926 706.092 112.586 706.349 112.17C706.606 111.755 706.051 109.842 705.117 107.92C704.182 105.998 702.693 102.626 701.807 100.426C699.543 94.8 692.263 78.9471 690.486 75.7721C688.33 71.9201 688.639 70.252 691.864 68.347C701.377 62.728 706.632 41.4521 702.463 25.4441C700.413 17.5731 697.9 13.757 691.84 9.30804C683.87 3.45804 676.591 1.92605 656.772 1.92605H640V57.562ZM709.499 3.67605C709.891 4.63805 710.894 7.45105 711.728 9.92605C715.192 20.206 723.289 41.361 728.949 54.921L735 69.417V91.171V112.926H745.378C752.655 112.926 756.076 112.539 756.83 111.63C757.559 110.753 757.735 103.87 757.377 90.308L756.849 70.282L759.823 63.3541C766.109 48.7111 783.985 3.47205 783.998 2.17605C783.999 2.03905 779.115 1.92605 773.144 1.92605H762.287L757.739 13.676C755.238 20.138 751.711 29.827 749.902 35.205C748.047 40.72 746.318 44.427 745.938 43.705C745.308 42.51 732.198 5.91505 731.419 3.17605C731.161 2.27205 727.979 1.92605 719.924 1.92605C709.712 1.92605 708.845 2.07105 709.499 3.67605ZM677.293 22.942C681.109 25.943 682.365 30.9671 681.69 40.5311C680.819 52.8721 678.787 54.926 667.453 54.926H661V37.926V20.926H667.865C673.234 20.926 675.289 21.365 677.293 22.942ZM510.079 24.5091C510.127 25.6741 510.364 25.911 510.683 25.114C510.972 24.392 510.936 23.529 510.604 23.197C510.272 22.865 510.036 23.4551 510.079 24.5091ZM203.426 58.426C204.846 66.126 206.007 72.763 206.004 73.176C206.002 73.589 202.4 73.926 198 73.926C192.261 73.926 190.003 73.573 190.01 72.676C190.015 71.989 191.59 62.276 193.51 51.093C195.429 39.91 197.053 30.235 197.117 29.593C197.289 27.873 200.473 42.422 203.426 58.426ZM594.503 49.926C596.467 60.651 598.291 70.438 598.556 71.676C599.024 73.862 598.811 73.926 591.019 73.926H583V70.869C583 69.187 583.415 65.925 583.922 63.619C584.43 61.313 586.101 52.514 587.636 44.067C589.171 35.619 590.541 29.094 590.68 29.567C590.818 30.039 592.539 39.201 594.503 49.926ZM510.158 34.926C510.158 36.301 510.385 36.864 510.662 36.176C510.94 35.489 510.94 34.364 510.662 33.676C510.385 32.989 510.158 33.551 510.158 34.926ZM88.158 57.926C88.158 59.301 88.385 59.864 88.662 59.176C88.94 58.489 88.94 57.364 88.662 56.676C88.385 55.989 88.158 56.551 88.158 57.926ZM510.079 57.5091C510.127 58.6741 510.364 58.911 510.683 58.114C510.972 57.392 510.936 56.529 510.604 56.197C510.272 55.865 510.036 56.4551 510.079 57.5091ZM88.158 64.926C88.158 66.301 88.385 66.864 88.662 66.176C88.94 65.489 88.94 64.364 88.662 63.676C88.385 62.989 88.158 63.551 88.158 64.926ZM510.158 64.926C510.158 66.301 510.385 66.864 510.662 66.176C510.94 65.489 510.94 64.364 510.662 63.676C510.385 62.989 510.158 63.551 510.158 64.926ZM268.195 67.426C268.215 69.076 268.439 69.63 268.693 68.657C268.947 67.684 268.93 66.334 268.656 65.657C268.382 64.98 268.175 65.776 268.195 67.426ZM88.158 70.926C88.158 72.301 88.385 72.864 88.662 72.176C88.94 71.489 88.94 70.364 88.662 69.676C88.385 68.989 88.158 69.551 88.158 70.926ZM345.079 77.5091C345.127 78.6741 345.364 78.911 345.683 78.114C345.972 77.392 345.936 76.529 345.604 76.197C345.272 75.865 345.036 76.4551 345.079 77.5091ZM88.158 80.926C88.158 82.301 88.385 82.864 88.662 82.176C88.94 81.489 88.94 80.364 88.662 79.676C88.385 78.989 88.158 79.551 88.158 80.926ZM345.079 94.5091C345.127 95.6741 345.364 95.911 345.683 95.114C345.972 94.392 345.936 93.529 345.604 93.197C345.272 92.865 345.036 93.4551 345.079 94.5091ZM284.75 98.588C285.438 98.866 286.563 98.866 287.25 98.588C287.938 98.311 287.375 98.0841 286 98.0841C284.625 98.0841 284.063 98.311 284.75 98.588ZM88.252 103.426C88.263 105.626 88.468 106.408 88.707 105.164C88.946 103.92 88.937 102.12 88.687 101.164C88.437 100.208 88.241 101.226 88.252 103.426ZM435.195 106.426C435.215 108.076 435.439 108.63 435.693 107.657C435.947 106.684 435.93 105.334 435.656 104.657C435.382 103.98 435.175 104.776 435.195 106.426ZM753.813 140.609C754.534 140.898 755.397 140.862 755.729 140.53C756.061 140.198 755.471 139.962 754.417 140.005C753.252 140.053 753.015 140.29 753.813 140.609ZM527.5 141.372C526.95 141.58 525.271 142.022 523.768 142.353C520.426 143.089 514.412 148.228 512.449 152.025C509.791 157.165 511.431 165.091 515.904 168.721C518.44 170.78 525.579 173.761 529.709 174.485C534.713 175.363 538 177.516 538 179.914C538 184.472 529.093 185.34 523.089 181.366C519.225 178.809 519.217 178.808 515.36 180.62C510.809 182.758 510.043 185.44 512.933 189.114C516.211 193.281 523.043 195.926 530.529 195.926C536.917 195.926 541.437 194.393 546.239 190.596C548.519 188.794 551 182.762 551 179.023C551 171.471 547.555 168.441 534.347 164.374C525.58 161.675 523.483 160.13 524.451 157.082C525.671 153.236 531.985 152.951 537.12 156.509C540.807 159.065 540.887 159.074 544.516 157.352C549.396 155.035 549.746 153.593 546.469 149.297C542.741 144.409 531.677 139.787 527.5 141.372ZM629 141.617C618.42 143.388 609.447 150.231 606.547 158.741C600.012 177.921 613.16 196.372 633.278 196.254C646.03 196.179 655.908 188.632 659.521 176.207C661.544 169.248 661.103 165.133 657.465 157.028C655.406 152.44 653.515 150.006 650.006 147.431C645.913 144.426 635.591 140.663 632.54 141.062C631.968 141.137 630.375 141.387 629 141.617ZM560.001 148.473L560 154.521L566.5 154.107L573 153.693V174.703C573 190.601 573.304 195.823 574.25 196.167C574.938 196.417 577.525 196.578 580 196.524L584.5 196.426L584.77 175.176L585.04 153.926L590.27 153.811C599.007 153.618 598.5 153.98 598.5 147.926V142.426H579.251H560.001V148.473ZM673 169.129V196.026L678.75 195.726L684.5 195.426L685 185.936C685.684 172.957 686.907 172.951 694.562 185.883L700.5 195.915L706.191 195.921C709.321 195.924 712.155 195.484 712.489 194.944C712.822 194.404 710.437 189.733 707.189 184.564L701.282 175.166L704.373 173.796C709.123 171.691 712 166.617 712 160.343C712 153.985 710.964 150.981 707.616 147.633C704.001 144.018 700.129 143.137 685.75 142.658L673 142.233V169.129ZM724 168.873V195.82L741.037 195.623C759.922 195.405 760.195 195.306 759.325 189.012C758.453 182.706 758.881 182.926 747.531 182.926H737V179.426C737 176.002 737.092 175.922 741.25 175.755C743.587 175.661 746.175 175.484 747 175.361C747.825 175.239 750.413 175.091 752.75 175.032L757 174.926V169.461V163.996L746.762 163.711L736.523 163.426L736.512 158.947L736.5 154.469L742 154.424C745.025 154.4 750.087 154.277 753.25 154.153L759 153.926V147.926V141.926H741.5H724V168.873ZM600.232 147.926C600.232 149.851 600.438 150.638 600.689 149.676C600.941 148.714 600.941 147.138 600.689 146.176C600.438 145.214 600.232 146.001 600.232 147.926ZM640.281 155.119C641.261 155.62 643.399 157.874 645.031 160.128C654.371 173.021 640.678 188.832 625.62 182.541C621.695 180.9 618.004 175.374 617.293 170.071C616.681 165.513 619.724 158.808 623.538 156.309C628.303 153.187 635.504 152.675 640.281 155.119ZM698.751 156.669C702.085 161.756 697.837 165.926 689.322 165.926H684.738L685.358 162.176C685.699 160.114 685.983 157.388 685.989 156.119C685.999 153.946 686.33 153.829 691.641 154.119C696.183 154.366 697.567 154.862 698.751 156.669ZM722.158 173.926C722.158 175.301 722.385 175.864 722.662 175.176C722.94 174.489 722.94 173.364 722.662 172.676C722.385 171.989 722.158 172.551 722.158 173.926Z" fill="black"/>
</svg>
