<svg width="717" height="724" viewBox="0 0 717 724" fill="none" xmlns="http://www.w3.org/2000/svg">
<path fill-rule="evenodd" clip-rule="evenodd" d="M441.329 1.474C439.819 2.984 439.164 6.841 438.183 20C437.876 24.125 435.395 54.725 432.671 88C429.947 121.275 427.002 158.175 426.128 170C425.254 181.825 424.094 191.95 423.551 192.5C422.975 193.084 413.614 193.634 401.046 193.822C382.664 194.097 379.173 193.911 377.094 192.549L374.66 190.954V159.112C374.66 128.412 374.586 127.175 372.587 124.635C368.539 119.488 370.495 118.577 316.66 150.687C250.176 190.342 243.733 194 240.379 194C238.554 194 236.52 193.46 235.86 192.8C234.976 191.916 234.66 183.119 234.66 159.435C234.66 128.408 234.587 127.176 232.587 124.635C228.557 119.511 231.758 117.969 169.16 155.206C157.61 162.077 137.36 174.094 124.16 181.909C110.96 189.725 99.373 197.043 98.41 198.171C96.76 200.104 96.66 208.762 96.66 349.156V498.091L99.115 500.545L101.569 503H145.115H188.66V378.682C188.66 242.261 188.353 249.335 194.682 239.781C196.368 237.235 199.88 233.784 202.487 232.111C212.563 225.645 204.404 225.94 365.248 226.234C503.141 226.485 511.415 226.599 515.793 228.304C521.412 230.492 527.961 235.933 531.253 241.147C536.814 249.957 536.66 245.999 536.66 379.71V503H580.205H623.751L626.205 500.545L628.66 498.091L628.659 451.795C628.658 401.321 627.309 372.26 620.175 269C619.358 257.175 618.002 236.475 617.161 223C616.32 209.525 614.967 189.05 614.155 177.5C613.343 165.95 611.542 139.175 610.153 118C608.764 96.825 606.755 67.125 605.688 52C604.621 36.875 603.447 19.775 603.079 14C602.71 8.225 601.996 2.705 601.49 1.733C600.643 0.103002 598.586 -0.0129983 574.879 0.233002L549.186 0.5L548.047 3C547.421 4.375 545.933 18.325 544.74 34C543.547 49.675 540.83 85.225 538.702 113C536.575 140.775 534.551 168.225 534.206 174C533.252 189.943 532.893 191.573 530.047 192.869C526.712 194.389 513.776 194.282 510.66 192.709C507.741 191.236 508.587 198.917 502.656 120C495.814 28.943 493.687 3.918 492.619 1.924C491.646 0.105996 490.244 0 467.196 0C447.038 0 442.547 0.255999 441.329 1.474ZM214.127 245.998C211.91 247.096 209.21 249.458 208.127 251.247C206.199 254.435 206.16 256.945 206.16 377C206.16 444.375 206.483 500.288 206.879 501.25C207.559 502.906 215.887 503 361.929 503C480.631 503 516.537 502.723 517.46 501.8C518.38 500.88 518.66 471.9 518.66 377.448V254.296L516.39 250.898C515.142 249.029 512.554 246.713 510.64 245.752C507.375 244.111 498.236 244.003 362.66 244.002C220.266 244.002 218.101 244.031 214.127 245.998ZM325.66 276.561C325.66 290.714 326.339 292 333.815 292H338.66V300.41C338.66 308.774 338.683 308.85 342.845 314.115C349.456 322.479 359.686 332.001 362.047 331.989C363.365 331.982 368.584 327.751 375.924 320.739L387.688 309.5L387.674 301L387.661 292.5L392.333 292.4C396.132 292.319 397.452 291.781 399.393 289.524C401.643 286.908 401.762 286.124 401.47 275.844L401.16 264.94L447.991 265.22C493.023 265.489 494.877 265.575 496.241 267.441C497.444 269.087 497.66 284.899 497.66 371.469C497.66 462.246 497.488 473.801 496.103 475.777L494.547 478H362.66H230.773L229.217 475.777C227.833 473.801 227.66 462.286 227.66 371.888C227.66 276.527 227.769 270.092 229.41 268.127C231.484 265.645 230.967 265.671 287.41 265.14L325.66 264.78V276.561ZM322.513 346.309C308.923 352.046 302.202 362.024 302.175 376.5C302.162 383.695 302.54 385.305 305.941 392.5C309.517 400.064 310.983 401.739 332.87 423.25L356.018 446H303.791H251.565L249.112 448.646C245.232 452.833 246.529 462.585 251.205 464.379C252.095 464.72 302.658 465 363.567 465H474.311L476.568 462.598C477.809 461.277 479.063 458.416 479.355 456.24C479.805 452.879 479.45 451.796 476.988 449.041L474.091 445.798L421.625 445.931L369.16 446.064L393.808 421.782C422.955 393.067 423.16 392.758 423.16 377.5C423.16 368.572 422.86 366.889 420.36 361.797C416.944 354.841 409.353 347.765 402.976 345.592C400.406 344.716 395.081 344 391.142 344C382.028 344 373.835 347.787 367.353 354.997L362.964 359.878L358.062 354.856C351.03 347.653 344.888 344.759 335.66 344.299C329.451 343.989 327.188 344.335 322.513 346.309ZM0.610997 549.629C-0.489003 552.523 0.022 647.159 1.148 648.98C2.051 650.441 17.976 650.284 19.46 648.8C20.311 647.949 20.66 641.972 20.66 628.274V608.949L30.91 609.368C43.71 609.891 44.66 609.298 44.66 600.779C44.66 591.18 44.42 591 31.625 591H20.66V578.5V566H33.038C42.449 566 45.695 565.663 46.581 564.595C47.313 563.713 47.638 560.268 47.454 555.345L47.16 547.5L24.392 547.231L1.62499 546.962L0.610997 549.629ZM60.86 548.2C58.953 550.107 59.149 647.331 61.063 648.92C61.953 649.658 65.519 649.977 70.813 649.792L79.16 649.5L79.419 599.614C79.607 563.608 79.364 549.348 78.547 548.364C77.082 546.599 62.595 546.465 60.86 548.2ZM95.86 548.2C94.281 549.779 94.123 645.129 95.695 648.066C96.669 649.886 97.997 650 118.16 650C142.642 650 141.66 650.376 141.66 641C141.66 632.164 141.405 632 127.625 632H115.66V591.434C115.66 565.384 115.29 550.176 114.625 548.934C113.73 547.261 112.473 547 105.325 547C100.23 547 96.6 547.46 95.86 548.2ZM170.757 548.384C168.727 550.829 149.875 635.84 149.415 644.621L149.16 649.5L157.567 649.793C162.191 649.954 166.396 649.664 166.913 649.147C167.429 648.631 168.624 644.674 169.568 640.354L171.285 632.5L181.972 632.216C187.851 632.06 192.66 632.143 192.66 632.401C192.66 634.723 195.952 647.647 196.806 648.675C198.488 650.703 214.247 650.517 215.037 648.461C215.567 647.079 212.848 633.354 199.589 570.5C197.384 560.05 195.158 550.487 194.642 549.25C193.749 547.112 193.162 547 182.804 547C174.743 547 171.606 547.36 170.757 548.384ZM228.86 548.2C227.131 549.929 227.131 647.071 228.86 648.8C230.665 650.605 243.107 650.372 244.657 648.504C245.604 647.363 245.805 640.065 245.505 617.754C245.288 601.664 245.27 589.4 245.464 590.5C246.098 594.097 256.635 629.85 257.841 632.498C258.965 634.964 259.335 635.067 266.051 634.79L273.084 634.5L274.933 628.5C275.949 625.2 278.936 614.686 281.57 605.135L286.359 587.769L285.871 617.365C285.492 640.299 285.666 647.303 286.644 648.48C288.016 650.134 300.071 650.661 302.419 649.17C303.41 648.541 303.623 637.621 303.419 597.935L303.16 547.5L293.561 547.216C286.537 547.008 283.668 547.286 282.865 548.253C281.692 549.667 268.258 593.297 267.107 599.43C266.729 601.445 266.265 602.938 266.075 602.748C265.885 602.559 264.159 596.944 262.238 590.271C257.295 573.098 249.611 549.728 248.421 548.25C247.073 546.575 230.528 546.532 228.86 548.2ZM319.86 548.2C318.281 549.779 318.123 645.129 319.695 648.066C320.671 649.889 322.006 650 342.995 650C358.979 650 365.599 649.661 366.46 648.8C368.115 647.145 368.045 634.564 366.373 633.177C365.663 632.587 359.283 631.948 352.123 631.75L339.16 631.391L338.878 619.696L338.597 608H350.093C360.81 608 361.667 607.855 362.733 605.864C364.317 602.904 363.485 591.134 361.608 589.947C360.812 589.443 355.323 589.024 349.41 589.015L338.66 589V577.5V566H351.589C367.36 566 367.66 565.816 367.66 556.129C367.66 552.229 367.156 548.896 366.46 548.2C365.599 547.339 359.016 547 343.16 547C327.304 547 320.721 547.339 319.86 548.2ZM381.118 548.25C380.855 548.938 380.757 572 380.9 599.5L381.16 649.5H389.66H398.16L398.66 620C399.114 593.22 399.284 590.915 400.51 595C402.972 603.212 420.68 646.364 422.339 648.198C423.62 649.614 425.501 650 431.115 650C435.339 650 438.751 649.509 439.46 648.8C441.189 647.071 441.189 549.929 439.46 548.2C438.005 546.745 423.055 546.552 422.174 547.977C421.842 548.514 421.558 561.452 421.543 576.727C421.527 592.002 421.266 603.825 420.962 603C415.139 587.189 399.231 548.347 398.349 547.787C396.271 546.465 381.652 546.858 381.118 548.25ZM452.327 547.667C451.96 548.033 451.66 551.803 451.66 556.044C451.66 565.776 452.183 566.266 462.112 565.831L469.665 565.5L469.662 606.55C469.661 637.147 469.966 647.906 470.86 648.8C471.583 649.523 475.082 650 479.66 650C484.238 650 487.737 649.523 488.46 648.8C489.354 647.906 489.659 637.147 489.658 606.55L489.655 565.5L497.239 565.832C507.376 566.275 508.66 565.175 508.66 556.045C508.66 552.21 508.153 548.893 507.46 548.2C506.587 547.327 499.008 547 479.627 547C464.978 547 452.693 547.3 452.327 547.667ZM528.633 549.25C526.947 553.102 507.734 647.03 508.32 648.556C509.071 650.513 524.892 650.63 526.502 648.69C527.1 647.97 528.349 643.92 529.279 639.69L530.968 632H541.701H552.434L553.688 638.75C555.871 650.499 555.369 650 565.013 650C571.178 650 573.739 649.609 574.633 648.533C575.963 646.93 576.089 647.58 562.056 583.578C557.966 564.921 554.123 549.058 553.517 548.328C552.719 547.366 549.271 547 541.016 547C530.153 547 529.571 547.106 528.633 549.25ZM587.91 548.133C586.136 549.932 586.087 647.027 587.86 648.8C588.583 649.523 592.082 650 596.66 650C601.238 650 604.737 649.523 605.46 648.8C606.301 647.959 606.66 642.409 606.66 630.24V612.879L610.41 613.19L614.16 613.5L620.281 629.5C623.648 638.3 627.157 646.513 628.078 647.75C629.586 649.775 630.602 650 638.238 650C644.913 650 646.847 649.675 647.307 648.478C647.628 647.64 644.428 638.377 640.194 627.892C635.961 617.407 632.647 608.737 632.829 608.624C637.128 605.964 641.109 602.041 642.726 598.871C646.98 590.532 646.932 572.153 642.63 562.153C640.037 556.125 636.694 552.814 630.16 549.804C625.635 547.719 623.449 547.47 607.16 547.183C593.604 546.944 588.851 547.178 587.91 548.133ZM651.731 548.415C650.518 549.876 654.175 560.478 668.056 595.736L673.66 609.971V628.051C673.66 638.602 674.091 646.937 674.695 648.066C675.582 649.723 676.842 650 683.495 650C688.201 650 691.733 649.527 692.46 648.8C693.306 647.954 693.66 642.211 693.66 629.351V611.102L700.242 594.301C712.237 563.68 716.805 550.994 716.47 549.237C716.192 547.782 714.783 547.453 707.802 547.208C702.9 547.036 698.934 547.357 698.175 547.987C696.483 549.392 691.445 563.473 687.263 578.488C684.185 589.539 683.867 590.204 683.198 586.988C682.066 581.553 671.542 549.649 670.419 548.25C668.941 546.409 653.281 546.547 651.731 548.415ZM622.896 567.792C624.71 569.605 625.192 571.407 625.501 577.517C626.247 592.304 623.637 595.989 612.41 595.996L606.66 596V580.387V564.774L613.665 565.17C619.243 565.485 621.124 566.02 622.896 567.792ZM189.234 612.306L189.843 615.112L183.309 614.9C179.715 614.784 176.368 614.421 175.873 614.094C175.367 613.761 176.54 605.361 178.547 594.947L182.122 576.394L185.373 592.947C187.161 602.051 188.898 610.763 189.234 612.306ZM545.569 595.948L549.25 614H541.627H534.004L537.582 595.593C539.55 585.469 541.324 577.345 541.524 577.54C541.725 577.735 543.545 586.019 545.569 595.948ZM481.081 675.833C473.148 679.559 469.968 686.871 473.307 693.707C475.209 697.601 477.42 699.026 489.91 704.41C496.078 707.069 497.524 709.932 493.726 711.965C489.809 714.061 481.575 712.09 480.385 708.771C479.831 707.225 470.66 711.606 470.66 713.416C470.66 715.749 474.054 719.275 478.043 721.086C483.227 723.44 495.438 723.683 499.631 721.515C505.674 718.39 508.697 710.568 506.386 704.035C504.951 699.978 500.618 696.791 493.354 694.448C490.497 693.527 487.147 692.139 485.91 691.364C482.85 689.446 483.01 686.198 486.225 684.975C489.965 683.553 490.982 683.73 495.077 686.508L498.772 689.016L502.216 686.389C506.841 682.862 506.618 680.645 501.325 677.544C495.287 674.005 486.547 673.267 481.081 675.833ZM574.654 674.874C562.506 678.86 555.507 689.618 556.979 702.042C558.52 715.06 567.964 723.161 581.547 723.118C590.041 723.091 594.844 720.94 600.089 714.811C613.468 699.182 603.698 675.572 583.37 674.408C579.955 674.212 576.032 674.422 574.654 674.874ZM514.348 675.645C513.97 676.024 513.66 678.263 513.66 680.621V684.909L520.228 685.204L526.797 685.5L526.978 704L527.16 722.5H532.66H538.16L538.432 703.795L538.704 685.09L545.432 684.795L552.16 684.5V680V675.5L533.598 675.229C523.389 675.079 514.726 675.267 514.348 675.645ZM616.327 675.667C615.354 676.639 615.539 720.261 616.522 721.811C617.072 722.679 619.011 723.017 622.257 722.811L627.16 722.5L627.452 714.75C627.742 707.049 627.761 707 630.471 707C632.819 707 633.825 708.078 637.699 714.75L642.2 722.5L647.93 722.8C652.121 723.019 653.658 722.751 653.653 721.8C653.648 721.085 651.62 716.954 649.144 712.621L644.644 704.741L648.652 700.393C652.275 696.463 652.66 695.538 652.656 690.772C652.651 683.952 649.99 679.506 644.389 676.964C641.011 675.43 637.83 675.04 628.577 675.022C622.206 675.01 616.693 675.3 616.327 675.667ZM666.109 676.273C665.84 676.973 665.742 687.66 665.89 700.023L666.16 722.5H681.66H697.16V717.5V712.5L686.91 712.215L676.66 711.93V707.965V704H685.66H694.66V699V694H685.66H676.66V689.5V685H686.66H696.66V680V675H681.629C670.383 675 666.474 675.321 666.109 676.273ZM586.024 686.379C593.29 689.415 596.131 696.885 592.846 704.313C590.33 710 586.945 712.279 581.189 712.164C575.608 712.052 573.004 710.488 570.577 705.79C566.281 697.474 569.863 688.55 578.66 685.652C581.209 684.812 582.604 684.95 586.024 686.379ZM637.651 685.893C641.212 686.884 642.6 691.304 640.187 693.97C638.777 695.528 637.107 696 633.005 696H627.66V690.5V685L631.41 685.1C633.473 685.155 636.281 685.511 637.651 685.893Z" fill="black"/>
</svg>
